<mxfile host="app.diagrams.net" agent="Mozilla/5.0 (Macintosh; Intel Mac OS X 10_15_7) AppleWebKit/537.36 (KHTML, like Gecko) Chrome/130.0.0.0 Safari/537.36" version="24.7.17">
  <diagram id="C5RBs43oDa-KdzZeNtuy" name="Page-1">
    <mxGraphModel dx="1434" dy="785" grid="1" gridSize="10" guides="1" tooltips="1" connect="1" arrows="1" fold="1" page="1" pageScale="1" pageWidth="827" pageHeight="1169" math="0" shadow="0">
      <root>
        <mxCell id="WIyWlLk6GJQsqaUBKTNV-0" />
        <mxCell id="WIyWlLk6GJQsqaUBKTNV-1" parent="WIyWlLk6GJQsqaUBKTNV-0" />
        <mxCell id="CkTQajjzezELmAaT6R0g-7" style="edgeStyle=orthogonalEdgeStyle;rounded=0;orthogonalLoop=1;jettySize=auto;html=1;exitX=0.5;exitY=1;exitDx=0;exitDy=0;entryX=0.5;entryY=0;entryDx=0;entryDy=0;" edge="1" parent="WIyWlLk6GJQsqaUBKTNV-1" source="CkTQajjzezELmAaT6R0g-0" target="CkTQajjzezELmAaT6R0g-2">
          <mxGeometry relative="1" as="geometry" />
        </mxCell>
        <mxCell id="CkTQajjzezELmAaT6R0g-0" value="시작" style="rounded=1;whiteSpace=wrap;html=1;" vertex="1" parent="WIyWlLk6GJQsqaUBKTNV-1">
          <mxGeometry x="240" y="120" width="120" height="30" as="geometry" />
        </mxCell>
        <mxCell id="CkTQajjzezELmAaT6R0g-8" style="edgeStyle=orthogonalEdgeStyle;rounded=0;orthogonalLoop=1;jettySize=auto;html=1;exitX=0.5;exitY=1;exitDx=0;exitDy=0;entryX=0.5;entryY=0;entryDx=0;entryDy=0;" edge="1" parent="WIyWlLk6GJQsqaUBKTNV-1" source="CkTQajjzezELmAaT6R0g-2" target="CkTQajjzezELmAaT6R0g-6">
          <mxGeometry relative="1" as="geometry" />
        </mxCell>
        <mxCell id="CkTQajjzezELmAaT6R0g-2" value="for&lt;span style=&quot;white-space: pre;&quot;&gt;&#x9;&lt;/span&gt;&lt;span style=&quot;white-space: pre;&quot;&gt;&#x9;&lt;/span&gt;&lt;span style=&quot;white-space: pre;&quot;&gt;&#x9;&lt;/span&gt;&lt;font color=&quot;#7ea6e0&quot;&gt;i = 1 ; i&amp;lt;=10 ; i++&lt;/font&gt;" style="swimlane;whiteSpace=wrap;html=1;" vertex="1" parent="WIyWlLk6GJQsqaUBKTNV-1">
          <mxGeometry x="200" y="200" width="200" height="190" as="geometry" />
        </mxCell>
        <mxCell id="CkTQajjzezELmAaT6R0g-1" value="for&lt;span style=&quot;white-space: pre;&quot;&gt;&#x9;&lt;/span&gt;&lt;span style=&quot;white-space: pre;&quot;&gt;&#x9;&lt;/span&gt;j&amp;nbsp;= 1 ; j&amp;lt;=10 ; j++" style="swimlane;whiteSpace=wrap;html=1;" vertex="1" parent="CkTQajjzezELmAaT6R0g-2">
          <mxGeometry x="15" y="30" width="170" height="75" as="geometry" />
        </mxCell>
        <mxCell id="CkTQajjzezELmAaT6R0g-4" value="*" style="shape=document;whiteSpace=wrap;html=1;boundedLbl=1;" vertex="1" parent="CkTQajjzezELmAaT6R0g-1">
          <mxGeometry x="25" y="30" width="120" height="40" as="geometry" />
        </mxCell>
        <mxCell id="CkTQajjzezELmAaT6R0g-5" value="줄 바꿈" style="shape=document;whiteSpace=wrap;html=1;boundedLbl=1;" vertex="1" parent="CkTQajjzezELmAaT6R0g-2">
          <mxGeometry x="40" y="110" width="120" height="60" as="geometry" />
        </mxCell>
        <mxCell id="CkTQajjzezELmAaT6R0g-6" value="끝" style="rounded=1;whiteSpace=wrap;html=1;" vertex="1" parent="WIyWlLk6GJQsqaUBKTNV-1">
          <mxGeometry x="240" y="410" width="120" height="60" as="geometry" />
        </mxCell>
      </root>
    </mxGraphModel>
  </diagram>
</mxfile>
